<!--?xml version="1.0" encoding="UTF-8"?-->
<svg preserveAspectRatio="xMidYMid meet" data-bbox="0.3 0.481 34.2 37.519" viewBox="0.3 0.481 34.2 37.519" xmlns="http://www.w3.org/2000/svg" data-type="color" role="presentation" aria-hidden="true" aria-label="">
    <g>
        <path fill-rule="evenodd" fill="#0a1e44" d="M17.7 38 6 30.4 7.3 5.5l.9-.5c6.3-3.7 12.7-3.7 19 0l.9.5v1c.5 7.6.8 15.2 1.2 22.7v1.1l-11.6 7.6Z" data-color="1"></path>
        <path fill-rule="evenodd" fill="#0a1e44" d="m30.3 22.8-.3-1.3.3-1.2h-8.1s0 .1-.1.1c0-.1-.6-.1-.6-.1H4.9v.9c0 .8-.1 1.5-.2 2.3v1.6c-.6.1-1.7.4-1.7.4l-.2 3.7S6.1 28.1 7 28v-1.3l23.4-3.8Z" data-color="1"></path>
        <path fill-rule="evenodd" fill="#0a1e44" d="M17.7 37.3 6.5 30 7.8 5.7l.7-.4c6.1-3.6 12.3-3.6 18.4 0l.7.4v.8c.4 7.6.8 15.2 1.2 22.7v.8z" data-color="1"></path>
        <path fill-rule="evenodd" fill="#ffffff" d="M17.7 36.6 7.1 29.7 8.3 6l.4-.2c5.9-3.5 11.9-3.5 17.8 0l.4.2v.5c.4 7.6.8 15.2 1.2 22.7v.5l-10.5 6.9Z" data-color="2"></path>
        <path fill-rule="evenodd" fill="#0a1e44" d="m17.7 35.3 9.7-6c-.2-3.4-.4-6.8-.5-10.3-.2-4.2-.4-8.3-.7-12.5-5.7-3.4-11.3-3.3-17 0l-.8 15.4-.4 7.3 9.7 6Z" data-color="1"></path>
        <path fill-rule="evenodd" fill="#0a1e44" d="M17.5 25.5c2.8-1.7 7-3.9 8.7-6.1-1.3-.6-3.3-1.5-4.6-2.1.2 0 .9-.3 1.1-.4 1-.5 1.8-1.4 1.5-2.7-.2-.7-.5-1-.7-1.3.5-.9.5-1.9-.2-2.6.7-.6.5-1.2.1-2 0-.1-.2-.3-.2-.4l.1-.4c1-.1 2.8-.5 2.6-1.7 0-.4-.4-.9-.8-1.3h.4c-1.2-1.5-3.9-2.8-5.3-3.3-1.5-.5-3.1-.8-4.7-.7-2.4.2-4.7 1.3-5.7 3.6 0 .1-.1.3-.2.4h.4c-.4 1.2-.3 2.5.6 3.7 0 .1 0 .7.1.9.1.4.3.8.5 1.1 0 0 .1.2.2.2.3.3.3.2.2.6 0 .3-.4 1.9-.4 2.3-.8.6-1.7 1.1-2.5 1.7 1.2 4.3 4.4 8.4 8.6 10.5Z" data-color="1"></path>
        <path fill-rule="evenodd" fill="#ffffff" d="M14.3 10.9V9.4c0-.4-.2-.9-.4-1.2-.3-.5-.8-1-1.4-1.1-.7 0-1 .9-.9 1.5.1.9.6 1.5 1.3 1.9.4.2.8.3 1.3.3Z" data-color="2"></path>
        <path fill-rule="evenodd" fill="#ffffff" d="M12.5 11.2c0 .4-.5 2.6-.5 2.8.5 1.3 2.9 3.2 4.2 3.7-.5-.9-.9-1.7-1.2-2.7-.6-.9-1.1-1.4-1.1-3.3-.3 0-1.1-.3-1.4-.5" data-color="2"></path>
        <path fill-rule="evenodd" fill="#009ad5" d="M14.9 3.1h.1c-.1.3-.7 1.3-.2 1.7.3.3.7.3 1.1.3.7 0 2.7-.5 3.6-.6.8-.1 1.6-.2 2.5-.3.8 0 1.8 0 2.6.2-1.2-.8-2.5-1.6-3.8-2.2-2-.8-4-1.1-6.2-.5S10.9 3.8 10.9 6c0 .3 0 .7.2 1.1.8-.5 1.4-.8 2-1.4.4-.4.7-.9 1.1-1.4.3-.4.6-.7.9-1.1Zm-.1 0" data-color="3"></path>
        <path fill-rule="evenodd" fill="#0a1e44" d="M12.6 8.3c.3.2.2.2.3.3 0 0-.4.3-.2.9 0 .1.3.4.5.5.2.2.3.2.6.3 0-.1-.8-1.2 0-1.1-.2-.5-.4-1.1-.9-1.4-.8-.5-1 .8-.6 1.2 0-.3 0-1 .5-.7Z" data-color="1"></path>
        <path fill-rule="evenodd" fill="#009ad5" d="M24.9 5.5c.2.1.4.2.6.4-.6-1.4-3.4-1.2-4.6-1-.8.1-1.5.3-2.2.4-.8.2-2 .4-2.8.3.7.2 1.4.3 2.1.5 1.3.2 2.3-.2 3.5-.4 1.2-.3 2.4-.5 3.5-.2Z" data-color="3"></path>
        <path fill-rule="evenodd" fill="#d1d2d3" d="M13.4 10.1c-.4-.3-1.1-.9-.5-1.6 0 0-.4-.4-.6-.3 0 0-.1.2-.1.4 0 .7.6 1.4 1.2 1.5" data-color="4"></path>
        <path fill-rule="evenodd" fill="#f7f8f8" d="M20.1 12.8c.9-.2 1.7-.5 2.6-.1 0-.6-.7-.7-1.3-.6-.4 0-.9.4-1.2.7Z" data-color="5"></path>
        <path fill-rule="evenodd" fill="#ffffff" d="M21.2 9c-.5.2-.9.5-.5 1.1 1.4-.7 2-.2 2-.2s.5-.3.4-.5c0-.1-.1-.2-.2-.3-.2-.4-.9-1.7-1.2-2h-.6c-.3.4-1.1 1.5-1.7 1.4 0 0 .4-.3.4-.4-.8 0-1.8-.5-2.7-.3.3-.3 1-.6 1.3-.7-.4-.2-1.2-.3-2 0 .2-.3.6-.5.6-.6-.3-.2-1.4-.3-1.7-.2 0 .7-.3 1.3 0 1.9.2.5.7.8 1.1 1.2 1.3 1.1 1.1 1.9 1.6 2.9.4-.7 1-1.3 1.4-1.7.5-.6.9-1.6 1.9-1.5Z" data-color="2"></path>
        <path fill-rule="evenodd" fill="#d1d2d3" d="M15.3 6.9c.4 0 .9 0 1.2.2.2-.3.6-.5.6-.6-.3-.2-1.4-.3-1.7-.2 0 .2 0 .4-.1.6" data-color="4"></path>
        <path fill-rule="evenodd" fill="#d1d2d3" d="M16.5 7c.8.1.7.5.7.6.3-.3 1-.6 1.3-.7-.4-.2-1.2-.3-2 0Z" data-color="4"></path>
        <path fill-rule="evenodd" fill="#d1d2d3" d="M17.2 7.7c.6 0 .4.5 1.2.6.4 0 1.3.3 1.7.1.7-.3 1.1-.9 2.1-.7-.2-.3-.4-.6-.5-.7h-.6c-.3.4-1.1 1.5-1.7 1.4 0 0 .4-.3.4-.4-.8 0-1.8-.5-2.7-.3Z" data-color="4"></path>
        <path fill-rule="evenodd" fill="#dadada" d="M12.4 12c.3.1.7.3.9.3 0 1.9.5 2.4 1.1 3.3.2.5.4 1 .6 1.4.4.3.9.5 1.2.6-.5-.9-.9-1.7-1.2-2.7-.6-.9-1.1-1.4-1.1-3.3-.3 0-1.1-.3-1.3-.5 0 .1 0 .4-.1.8Z" data-color="6"></path>
        <path fill-rule="evenodd" fill="#d1d2d3" d="M22 12c.2.1.2.3.2.4.2 0 .3 0 .5.1 0-.4-.3-.6-.7-.6Z" data-color="4"></path>
        <path fill-rule="evenodd" fill="#005a8f" d="M21.5 13.4c1.3.3 1.9 2.1.8 2.8.8-.4 1.2-.9.9-1.8.2.1.2.3.3.4.2-1-.6-1.9-2-1.4" data-color="7"></path>
        <path fill-rule="evenodd" fill="#005a8f" d="M10.7 5.9c0 .3 0 .7.2 1.1.8-.5 1.4-.8 2-1.4.4-.4.7-.9 1.1-1.4.3-.4.6-.7.9-1.1-.8.4-2.4 1.5-2.8 2.1V3.8c-.9.8-1.3 1.7-1.4 2Z" data-color="7"></path>
        <path fill-rule="evenodd" fill="#005a8f" d="M14.7 4.8c.3.3.7.3 1.1.3.7 0 2.7-.5 3.6-.6.8-.1 1.6-.2 2.5-.3.8 0 1.8 0 2.6.2-.9-.4-2.3-.5-3.3-.4-1.4 0-2.6.4-4 .6-.6.1-1.8.4-2.4.3Z" data-color="7"></path>
        <path fill-rule="evenodd" fill="#005a8f" d="M17.6 6c1.5.4 2.6 0 3.8-.4 1.2-.3 2.4-.5 3.5-.2-.9-.5-2.3-.4-3.3-.1-1.2.3-2.5.8-4 .7" data-color="7"></path>
        <path fill-rule="evenodd" fill="#005a8f" d="M19 12.8c.5-.7 1.7-1.5 2.7-1.6.9-.1 1.2.4 1.3.7.1-.8-.2-1.3-.9-1.4v.4c-.2-.4-.7-.4-1-.3-1 .3-1.9 1.2-2.1 2.2" data-color="7"></path>
        <path fill-rule="evenodd" fill="#005a8f" d="M19.1 15.9c-1.1-.4-2.2-1.5-2.8-2.5v.6c-.5-.5-1-1.1-1.4-1.6 0 2.2 2.4 3.4 4.1 3.5Z" data-color="7"></path>
        <path fill-rule="evenodd" fill="#ffffff" d="m11.4 13.3-3.1 1.5.1-.9z" data-color="2"></path>
        <path fill-rule="evenodd" fill="#ffffff" d="m21.6 17.2 5.7 2.7v-1.3l-5-1.4c1.9-.3 3.8-2.2 2-4.3.5-.9.5-1.9-.2-2.6.7-.6.5-1.2.1-2 0-.1-.2-.3-.2-.4v-.2c.8-.1 2.6-.8 1.9-1.7 0 1-1.7 1.4-2.6 1.5l-.1.4c0 .1 0 .3.2.4.4.8.6 1.3-.1 2 .8.8.7 1.7.2 2.6.1.2.5.5.7 1.3.3 1.3-.5 2.2-1.5 2.7-.2.1-.9.3-1.1.4Z" data-color="2"></path>
        <path fill-rule="evenodd" fill="#009ad5" d="M9.4 15.4c1.1 2.4 4.4 5.2 6.1 6.1h5.2c-4.1-1.6-8.6-5.3-9.6-7.1-.3.3-1.4.7-1.7 1" data-color="3"></path>
        <path fill-rule="evenodd" fill="#0a1e44" d="M4 22.7v-2.6h9.1s0 .1.1.1c0-.1.6-.1.6-.1h16.5v.9c0 .8.1 1.5.2 2.3v1.6c.6.1.9.2 1.5.4V29c-11-3.8-16.5-3.3-26.8-.5l-1.6-.8v-5Z" data-color="1"></path>
        <path fill-rule="evenodd" fill="#ffffff" d="M15.6 27.2v1.1h-1.8v.5H15v1.1h-1.2v1h-1.1v-2.5s-.1-.4-.4-1.1h3.2Z" data-color="2"></path>
        <path fill-rule="evenodd" fill="#ffffff" d="M18.6 27.2h2l.4.4.4-.4h2v3.6h-1.1v-2.5h-.8v2.5h-1.1v-2.5h-.8v2.5h-1.1v-3.6Z" data-color="2"></path>
        <path fill-rule="evenodd" fill="#009ad5" d="M16.4 28.7c-.2 0-.3.1-.5.2v-.7c.2 0 .3-.1.5-.2h1.2c.2 0 .3-.1.5-.2v.7c-.2 0-.3.1-.5.2z" data-color="3"></path>
        <path fill-rule="evenodd" fill="#009ad5" d="M16.4 30c-.2 0-.3.1-.5.2v-.7c.2 0 .3-.1.5-.2h1.2c.2 0 .3-.1.5-.2v.7c-.2 0-.3.1-.5.2z" data-color="3"></path>
        <path fill-rule="evenodd" fill="#0a1e44" d="M33.8 22.1h.6l.1.1v1.5h-.4v-1.2h-.3zm-1.3 0h.9l.1.1v.7h-.1c0 .1-.5.1-.5.1v.2h.3c0-.1.4 0 .4 0v.4h-1.1v-.9h.1c0-.1.5-.1.5-.1v-.2h-.3v.1h-.4V22Z" data-color="1"></path>
        <path fill-rule="evenodd" fill="#0a1e44" d="M.8 22.1H.3v.4h.3v1.2H1v-1.5l-.1-.1Z" data-color="1"></path>
        <path fill-rule="evenodd" fill="#0a1e44" d="M1.9 22.7h-.3v-.2h.3zm.3-.6h-.9v.8l.1.1h.5v.2h-.3v-.1h-.4v.3l.1.1h.9V22l-.1-.1Z" data-color="1"></path>
        <path fill-rule="evenodd" fill="#ffffff" d="M4.8 26.1c-.5.1-.7.1-1 .2v1.6c.4-.1.7-.2 1-.3h.4c.3-.2.7-.3 1.2-.4 0-.9 0-1.7.1-2.3l2.1-.3v-1.4l-2 .2v-.9h2V21H5l-.3 5.1Z" data-color="2"></path>
        <path fill-rule="evenodd" fill="#ffffff" d="M19.8 24.4v-.6H21v.6zm-.1-2.3h1.2v.6h-1.2zm2.9 1.6c-.2-.1-.4-.3-.6-.4.2-.1.4-.2.6-.4v-2h-3.9c-.2.4-.3.7-.5 1.1v3.4c1.3 0 2.6 0 3.9.2l.6-.3v-1.6Z" data-color="2"></path>
        <path fill-rule="evenodd" fill="#ffffff" d="M11.8 23.5v1.3c-.4 0-.8.1-1.2.2v-2.6h1.2v1.2Zm1.6-1.4v-.7c-.4-.3-.6-.4-.6-.4H9.6l-.6.5v1.2l-.2 3.4.6.3 3.3-.6c.2-.2.4-.3.6-.5v-3.2Z" data-color="2"></path>
        <path fill-rule="evenodd" fill="#ffffff" d="M31.3 25.9c-.5-.2-1-.3-1.5-.4 0-.8-.1-1.4-.1-2.2s0-1.5-.1-2.3H28c0 .6 0 1.4.1 2.3 0 .9 0 2.1.2 3.3 1.1.3 2.1.6 3.2.9v-1.6Z" data-color="2"></path>
        <path fill-rule="evenodd" fill="#ffffff" d="M24.7 22.9v-.7h1.2v.7zm2.8-1.4c-.4-.3-.6-.5-.6-.5h-3.2c-.2.1-.4.3-.6.4v4.3c.5 0 1.1.2 1.7.2v-1.8c.4 0 .8 0 1.2.1v2c.6.1 1.1.2 1.7.4 0-.8 0-1.7-.1-2.5 0-.8 0-1.7-.1-2.5Z" data-color="2"></path>
        <path fill-rule="evenodd" fill="#ffffff" d="M14 21c-.2.4-.4.8-.5 1.1H15v3.4c.5 0 1.1 0 1.6-.1V22h1.6v-1.1H14Z" data-color="2"></path>
    </g>
</svg>
